<?xml version="1.0" encoding="utf-8"?>
<!-- Generator: Adobe Illustrator 26.1.0, SVG Export Plug-In . SVG Version: 6.00 Build 0)  -->
<svg version="1.1" id="Layer_1" xmlns="http://www.w3.org/2000/svg" xmlns:xlink="http://www.w3.org/1999/xlink" x="0px" y="0px"
	 viewBox="0 0 733.5 682" style="enable-background:new 0 0 733.5 682;" xml:space="preserve">
<style type="text/css">
	.st0{fill:#F2F2F2;}
	.st1{fill:#3F3D56;}
	.st2{fill:#FFFFFF;}
	.st3{fill:#FFB6B6;}
	.st4{fill:#2F2E41;}
	.st5{fill:#BA2064;}
	.st6{opacity:0.1;enable-background:new    ;}
</style>
<circle class="st0" cx="709.1" cy="210.1" r="9.2"/>
<path class="st1" d="M528.2,680H300.3c-28.5,0-51.5-23.1-51.5-51.5v-577C248.8,23,271.9,0,300.3,0h227.9c28.5,0,51.5,23.1,51.5,51.5
	v576.9C579.7,656.9,556.6,680,528.2,680z"/>
<path class="st2" d="M525.6,16h-25.4c-4.7,0-8.5,3.8-8.5,8.5c0,9.6-7.8,17.5-17.5,17.5h-124c-9.6,0-17.5-7.8-17.5-17.5
	c0-4.7-3.8-8.5-8.5-8.5h-22.4c-21.6,0-39.1,17.5-39.1,39.1v572.8c0,21.6,17.5,39.1,39.1,39.1h223.8c21.6,0,39.1-17.5,39.1-39.1V55.1
	C564.7,33.5,547.2,16,525.6,16z"/>
<path class="st2" d="M443.5,27.5h-70c-1.4,0-2.5-1.1-2.5-2.5s1.1-2.5,2.5-2.5h70c1.4,0,2.5,1.1,2.5,2.5S444.8,27.5,443.5,27.5z"/>
<circle class="st2" cx="454.5" cy="25" r="2"/>
<path class="st1" d="M581.7,227.5c-2.5,0-4.5-2-4.5-4.5v-88c0-2.5,2-4.5,4.5-4.5s4.5,2,4.5,4.5v88
	C586.2,225.5,584.2,227.5,581.7,227.5z"/>
<path class="st1" d="M248.7,162.5c-2.5,0-4.5-2-4.5-4.5v-20c0-2.5,2-4.5,4.5-4.5s4.5,2,4.5,4.5l0,0v20
	C253.2,160.5,251.2,162.5,248.7,162.5z"/>
<path class="st1" d="M248.7,199.5c-2.5,0-4.5-2-4.5-4.5v-20c0-2.5,2-4.5,4.5-4.5s4.5,2,4.5,4.5v20
	C253.2,197.5,251.2,199.5,248.7,199.5z"/>
<path class="st1" d="M660.9,682h-667c-0.6,0-1-0.4-1-1s0.4-1,1-1h667c0.6,0,1,0.4,1,1S661.4,682,660.9,682z"/>
<polygon class="st3" points="55.5,669.9 67.8,669.9 73.6,622.6 55.5,622.6 "/>
<path class="st4" d="M52.4,665.9h24.1l0,0c8.5,0,15.4,6.9,15.4,15.4v0.5H52.4V665.9z"/>
<polygon class="st3" points="168.5,669.9 180.8,669.9 186.6,622.6 168.5,622.6 "/>
<path class="st4" d="M165.4,665.9h24.1l0,0c8.5,0,15.4,6.9,15.4,15.4v0.5h-39.5V665.9z"/>
<polygon class="st3" points="153.7,290 161.7,341 85.7,342 95.7,293 "/>
<path class="st4" d="M164.7,328l19,65l3,267.1h-20.5l-49-214.6l-45,209h-20l14-235c0,0-7-58,17-75v-14.9L164.7,328z"/>
<path class="st3" d="M55.7,378.8c8-2.2,12.7-10.4,10.5-18.4c-0.2-0.9-0.5-1.7-0.9-2.5l32.3-105.4l-23.8-4.7L44.3,351.1
	c-7.3,4.1-9.9,13.2-5.8,20.5C41.8,377.7,49,380.7,55.7,378.8z"/>
<circle class="st3" cx="121.6" cy="160.6" r="34.3"/>
<path class="st5" d="M97.1,317.5c-2.8-0.5-4.8-2.9-5-5.7c-0.8-10.3-4.5-28.3-11.1-53.4c-5.8-22.2,7.4-44.9,29.6-50.8
	c1.5-0.4,3.1-0.7,4.7-0.9l0,0c22.7-3.3,43.8,12.5,47.1,35.2c0.1,0.4,0.1,0.8,0.2,1.2c3.3,28.8-2.9,57.7-5.7,68.8
	c-0.7,2.7-3.1,4.7-6,4.7l-52.4,1C98,317.6,97.6,317.6,97.1,317.5z"/>
<path class="st3" d="M244.7,225.6c-0.3,0.7-0.6,1.4-0.8,2.2L178.3,250l-12.6-11l-19.2,16.9l20.5,21.8c3.4,3.6,8.8,4.5,13.2,2.3
	l70.2-35.8c6.9,4.2,15.9,2.1,20.2-4.8s2.1-15.9-4.8-20.2c-6.9-4.2-15.9-2.1-20.2,4.8C245.2,224.5,244.9,225,244.7,225.6L244.7,225.6
	z"/>
<path class="st5" d="M176.1,251.3l-23.9,20.9c-2.6,2.3-6.6,2-8.9-0.6c-0.2-0.2-0.4-0.5-0.6-0.7l-17.1-26.6
	c-6.3-7.3-5.5-18.3,1.8-24.6c7.3-6.3,18.2-5.5,24.6,1.7l24,20.5c2.6,2.3,3,6.2,0.7,8.9C176.5,250.8,176.3,251.1,176.1,251.3
	L176.1,251.3z"/>
<path class="st5" d="M93.8,279.5l-29.5-11.6c-3.2-1.3-4.8-4.9-3.6-8.1c0.1-0.3,0.2-0.6,0.4-0.8l15.8-27.4c3.6-9,13.7-13.3,22.7-9.7
	c8.9,3.6,13.3,13.7,9.8,22.6l-7.1,30.7c-0.8,3.4-4.2,5.5-7.5,4.7C94.4,279.7,94.1,279.6,93.8,279.5L93.8,279.5z"/>
<path class="st4" d="M137.5,152.9c7.5,7.6,17.6,16,27.7,11.4c6.6-3,10-10.3,8.9-17.5c-1.8-12.9-12.4-20.6-22.7-26.8
	c-13.4-8.2-28.3-15.5-43.9-14.7s-31.7,12.7-32,28.4c-0.3,12.6,9.2,25,5.2,37c-4.1,12-19.3,15.8-32,15.5S22.1,184,11.6,191
	c-13.5,9-14.6,29.6-6.4,43.6s23.1,22.5,37.9,29.2c19.5,8.9,41.2,15.8,62.2,11.7s40.5-22.8,38.9-44.2c-0.7-9-4.9-17.4-8.9-25.5
	s-8.1-16.6-8.4-25.6c-0.3-7.5,2.6-15.7,8.5-20.1c2.2-1.6,3.1-4.4,2.2-6.9L137.5,152.9z"/>
<path class="st2" d="M557,299.9c-10.8,6.5-30.1,14.6-49.8,6.3l-12.7-5.4l25.5-28.6c-45.2-49.8-41.4-126.9,8.4-172.1
	s126.9-41.4,172.1,8.4c45.2,49.8,41.4,126.9-8.4,172.1C655.3,314,601.8,321.6,557,299.9z"/>
<path class="st5" d="M557.1,301.4c-10.4,6.1-30.2,14.5-50.4,6l-14.5-6.1l26-29.1c-45.2-50.9-40.6-128.7,10.2-173.9
	s128.7-40.6,173.9,10.2C747.2,159,743,236.2,693,281.6l0,0C656,315.3,602.2,323.2,557.1,301.4L557.1,301.4z M699.5,109.3
	c-44.7-49.3-120.9-53-170.2-8.3s-53,120.9-8.3,170.2l0,0l0.8,0.9l-25.1,28.1l11,4.7c19.5,8.3,38.8-0.3,48.6-6.2l0.6-0.4l0.7,0.3
	c59.9,29.1,131.9,4.1,161-55.7C740.2,198.7,732.6,145.8,699.5,109.3L699.5,109.3z"/>
<path class="st6" d="M713.1,189.5c0-58.1-44.4-106.6-102.2-111.7c3.3-0.3,6.6-0.4,9.9-0.4c61.9,0,112.1,50.2,112.1,112.2
	c0,61.9-50.2,112.1-112.1,112.1c-3.3,0-6.6-0.2-9.9-0.4C668.8,296.1,713.1,247.6,713.1,189.5z"/>
<rect x="546" y="167.2" class="st5" width="80.1" height="7.4"/>
<rect x="546" y="192.9" class="st5" width="139.7" height="7.4"/>
<rect x="546" y="218.6" class="st5" width="139.5" height="7.4"/>
<path class="st2" d="M304.6,489.5c-31.8-28.8-34.2-78-5.4-109.8c28.8-31.8,78-34.2,109.8-5.4c31.8,28.8,34.2,78,5.4,109.8l0,0
	l16.3,18.2l-8.1,3.4c-12.6,5.3-24.9,0.1-31.8-4C362.2,515.7,328.1,510.8,304.6,489.5z"/>
<path class="st5" d="M356.7,510.6c-19.5,0-38.3-7.3-52.7-20.4l0,0c-32.2-29.2-34.6-78.9-5.4-111c29.2-32.2,78.9-34.6,111-5.4
	c31.9,29,34.6,78.2,5.9,110.4l16.6,18.6l-9.2,3.9c-12.9,5.5-25.5,0.1-32.1-3.8C380.1,507.9,368.5,510.6,356.7,510.6z M305.1,488.9
	c23.2,21.2,57,26,85.2,12.2l0.4-0.2l0.4,0.2c6.2,3.7,18.5,9.2,31,3.9l7-3l-16-17.9l0.5-0.6c28.5-31.4,26.1-80-5.3-108.6
	s-80-26.1-108.6,5.3C271.3,411.8,273.7,460.4,305.1,488.9L305.1,488.9z"/>
<path class="st6" d="M291.2,431.5c0-37,28.3-68,65.2-71.2c-2.1-0.2-4.2-0.3-6.3-0.3c-39.5,0-71.5,32.1-71.5,71.6s32,71.5,71.5,71.5
	c2.1,0,4.2-0.1,6.3-0.3C319.5,499.4,291.2,468.5,291.2,431.5z"/>
<rect x="346.7" y="417.2" class="st5" width="51.1" height="4.7"/>
<rect x="308.7" y="433.6" class="st5" width="89.1" height="4.7"/>
<rect x="308.8" y="450" class="st5" width="89" height="4.7"/>
<circle class="st5" cx="456.2" cy="509.1" r="11"/>
<circle class="st5" cx="472.2" cy="304.1" r="13"/>
</svg>
